#!OML:ASF H:\Martial Arts Walks\Project 1\Capture day 1\Session 1\male.ASF
:FULLY-SPECIFIED
:DEGREES
1939
root -4.75287 13.2432 -42.9999 13.6094 -54.754 -14.232
lowerback 15.42 6.23935 -0.553987
upperback -4.01321 8.46149 1.44255
thorax -13.4341 4.05504 -0.363293
lowerneck -2.38416 8.5073 1.95579
upperneck 8.35743 10.9878 3.60625
head 2.98344 5.6279 1.18715
rclavicle -8.00854e-014 -2.70347e-014
rhumerus -52.3051 52.3459 -110.182
rradius 114.954
rwrist -77.7354
rhand 13.8844 -28.7466
rfingers 7.12502
rthumb 38.8005 -54.3235
lclavicle -8.00854e-014 -2.70347e-014
lhumerus 4.20114 11.6272 83.6141
lradius 92.6656
lwrist -29.6586
lhand -37.0153 51.5716
lfingers 7.12502
lthumb -10.0894 -278.69
rfemur -31.675 -31.1478 17.7964
rtibia 89.2373
rfoot -39.6573 -25.0895
rtoes -12.0268
lfemur -66.5295 43.6636 -5.47976
ltibia 76.6895
lfoot -2.15209 1.20112
ltoes 0.70965
1940
root -4.75226 13.2394 -43.0036 13.6203 -54.761 -14.2467
lowerback 15.434 6.24415 -0.546502
upperback -4.0159 8.46981 1.44387
thorax -13.4449 4.05799 -0.369934
lowerneck -2.39864 8.51256 1.96677
upperneck 8.38737 10.993 3.60602
head 2.99703 5.63114 1.18759
rclavicle -2.80783e-014 -2.8625e-014
rhumerus -52.3251 52.3538 -110.185
rradius 114.958
rwrist -77.7326
rhand 13.8938 -28.7847
rfingers 7.12502
rthumb 38.8094 -54.3591
lclavicle -2.80783e-014 -2.8625e-014
lhumerus 4.21382 11.6083 83.611
lradius 92.6639
lwrist -29.6847
lhand -37.0266 51.5936
lfingers 7.12502
lthumb -10.1003 -278.669
rfemur -31.7194 -31.1338 17.8302
rtibia 89.2899
rfoot -39.6698 -25.1262
rtoes -11.9842
lfemur -66.5455 43.6381 -5.44308
ltibia 76.7111
lfoot -2.1351 1.23261
ltoes 0.753212
1941
root -4.75162 13.2355 -43.0071 13.6353 -54.7681 -14.267
lowerback 15.4461 6.25014 -0.536278
upperback -4.0194 8.48027 1.44492
thorax -13.4551 4.06174 -0.378782
lowerneck -2.41473 8.51633 1.97636
upperneck 8.42277 10.9953 3.61559
head 3.01215 5.63329 1.19154
rclavicle 1.68619e-013 -5.56597e-015
rhumerus -52.3409 52.3531 -110.196
rradius 114.949
rwrist -77.7366
rhand 13.9043 -28.8661
rfingers 7.12502
rthumb 38.8193 -54.4376
lclavicle 1.68619e-013 -5.56597e-015
lhumerus 4.23022 11.5835 83.6098
lradius 92.6559
lwrist -29.7107
lhand -37.0369 51.6119
lfingers 7.12502
lthumb -10.1102 -278.651
rfemur -31.7625 -31.1202 17.867
rtibia 89.3409
rfoot -39.6862 -25.1584
rtoes -11.936
lfemur -66.5584 43.6118 -5.40091
ltibia 76.7318
lfoot -2.11639 1.26375
ltoes 0.793702
1942
root -4.75099 13.2318 -43.0105 13.655 -54.7762 -14.2926
lowerback 15.4542 6.25692 -0.522193
upperback -4.02306 8.49241 1.44469
thorax -13.4623 4.06599 -0.391133
lowerneck -2.43363 8.51857 1.98667
upperneck 8.46361 10.9946 3.63206
head 3.02933 5.63433 1.19783
rclavicle 4.17696e-014 -3.02153e-014
rhumerus -52.35 52.3456 -110.211
rradius 114.927
rwrist -77.7475
rhand 13.908 -28.9542
rfingers 7.12502
rthumb 38.8228 -54.5248
lclavicle 4.17696e-014 -3.02153e-014
lhumerus 4.25208 11.5539 83.6087
lradius 92.6422
lwrist -29.7314
lhand -37.0453 51.6247
lfingers 7.12502
lthumb -10.1183 -278.639
rfemur -31.8044 -31.1068 17.9064
rtibia 89.3901
rfoot -39.7081 -25.1829
rtoes -11.88
lfemur -66.569 43.5874 -5.35517
ltibia 76.7517
lfoot -2.09628 1.29402
ltoes 0.829231
1943
root -4.75037 13.2281 -43.0137 13.6787 -54.7867 -14.322
lowerback 15.4568 6.26409 -0.504813
upperback -4.02649 8.50549 1.4427
thorax -13.465 4.07047 -0.406777
lowerneck -2.45494 8.51978 1.99878
upperneck 8.50848 10.9921 3.65198
head 3.04828 5.63462 1.20517
rclavicle -3.47128e-014 9.54166e-015
rhumerus -52.353 52.3337 -110.229
rradius 114.895
rwrist -77.7649
rhand 13.9011 -29.0173
rfingers 7.12502
rthumb 38.8163 -54.5897
lclavicle -3.47128e-014 9.54166e-015
lhumerus 4.27913 11.5219 83.6063
lradius 92.6244
lwrist -29.7454
lhand -37.0513 51.629
lfingers 7.12502
lthumb -10.1242 -278.635
rfemur -31.8456 -31.0931 17.947
rtibia 89.4369
rfoot -39.7339 -25.201
rtoes -11.8208
lfemur -66.5779 43.5669 -5.30825
ltibia 76.7705
lfoot -2.07572 1.3236
ltoes 0.861236
